<svg width="26" height="26" viewBox="0 0 26 26" fill="none" xmlns="http://www.w3.org/2000/svg">
<path d="M13 24.375C19.2822 24.375 24.375 19.2822 24.375 13C24.375 6.71776 19.2822 1.625 13 1.625C6.71776 1.625 1.625 6.71776 1.625 13C1.625 19.2822 6.71776 24.375 13 24.375Z" fill="#1794D4"/>
<path d="M14.625 5.6875H13V7.3125H14.625V5.6875Z" fill="white"/>
<path d="M8.125 8.125H9.75V9.75H8.125V8.125Z" fill="white"/>
<path d="M4.87626 13.7649C5.01511 16.1222 6.41897 19.5 11.375 19.5C16.9 19.5 19.3646 15.4375 19.9062 13.4062C20.5833 13.4062 22.1 13 22.75 11.375C22.3437 10.9688 20.7187 10.9688 19.9062 11.375C19.9062 10.725 19.5 9.34375 18.6875 8.9375C18.1458 9.47919 17.3062 10.8875 18.2812 12.1875C17.875 13 16.7917 13 16.25 13H5.6411C5.2109 13 4.85096 13.3354 4.87626 13.7649Z" fill="white"/>
<path d="M7.3125 10.5625H5.6875V12.1875H7.3125V10.5625Z" fill="white"/>
<path d="M8.125 10.5625H9.75V12.1875H8.125V10.5625Z" fill="white"/>
<path d="M12.1875 10.5625H10.5625V12.1875H12.1875V10.5625Z" fill="white"/>
<path d="M13 10.5625H14.625V12.1875H13V10.5625Z" fill="white"/>
<path d="M17.0625 10.5625H15.4375V12.1875H17.0625V10.5625Z" fill="white"/>
<path d="M12.1875 8.125H10.5625V9.75H12.1875V8.125Z" fill="white"/>
<path d="M13 8.125H14.625V9.75H13V8.125Z" fill="white"/>
</svg>
