<svg width="26" height="26" viewBox="0 0 26 26" fill="none" xmlns="http://www.w3.org/2000/svg">
<path d="M2.10061 14.1482C1.46647 13.5141 1.46647 12.4859 2.10061 11.8518L11.8518 2.10061C12.4859 1.46647 13.5141 1.46647 14.1482 2.10061L23.8994 11.8518C24.5335 12.4859 24.5335 13.5141 23.8994 14.1482L14.1482 23.8994C13.5141 24.5335 12.4859 24.5335 11.8518 23.8994L2.10061 14.1482Z" fill="#EE513B"/>
<path d="M9.87098 4.11243L8.88354 5.09989L11.4339 7.65025C11.3307 7.8716 11.2731 8.11845 11.2731 8.37877C11.2731 9.11782 11.7375 9.7484 12.3903 9.99467V16.2335C11.7375 16.4798 11.2731 17.1104 11.2731 17.8494C11.2731 18.803 12.0461 19.576 12.9997 19.576C13.9532 19.576 14.7262 18.803 14.7262 17.8494C14.7262 17.1794 14.3446 16.5985 13.7868 16.3123V10.0032L16.2247 12.4411C16.1266 12.658 16.072 12.8987 16.072 13.1522C16.072 14.1058 16.845 14.8788 17.7985 14.8788C18.7521 14.8788 19.5251 14.1058 19.5251 13.1522C19.5251 12.1987 18.7521 11.4256 17.7985 11.4256C17.6132 11.4256 17.4348 11.4548 17.2674 11.5088L14.6491 8.89056C14.6993 8.72887 14.7262 8.55695 14.7262 8.37877C14.7262 7.4252 13.9532 6.65219 12.9997 6.65219C12.8215 6.65219 12.6496 6.67919 12.4879 6.72931L9.87098 4.11243Z" fill="white"/>
</svg>
