<svg width="26" height="26" viewBox="0 0 26 26" fill="none" xmlns="http://www.w3.org/2000/svg">
<path d="M12.8533 20.9267C12.7653 20.9267 12.6831 20.9032 12.6068 20.8621L11.8262 20.3985C11.7088 20.3339 11.7675 20.3104 11.8028 20.2987C11.9612 20.2459 11.9905 20.2341 12.1549 20.1403C12.1725 20.1285 12.196 20.1344 12.2136 20.1461L12.8122 20.5041C12.8357 20.5158 12.865 20.5158 12.8826 20.5041L15.2244 19.1484C15.2479 19.1366 15.2596 19.1131 15.2596 19.0838V16.3782C15.2596 16.3488 15.2479 16.3254 15.2244 16.3136L12.8826 14.9637C12.8592 14.9519 12.8298 14.9519 12.8122 14.9637L10.4705 16.3136C10.447 16.3253 10.4352 16.3547 10.4352 16.3781V19.0838C10.4352 19.1073 10.447 19.1366 10.4705 19.1484L11.1102 19.5181C11.4565 19.6942 11.6736 19.4887 11.6736 19.2833V16.6129C11.6736 16.5777 11.703 16.5425 11.7441 16.5425H12.0434C12.0786 16.5425 12.1138 16.5718 12.1138 16.6129V19.2833C12.1138 19.747 11.8614 20.017 11.4212 20.017C11.2863 20.017 11.1806 20.017 10.8813 19.8702L10.265 19.5181C10.1124 19.4301 10.0186 19.2657 10.0186 19.0897V16.384C10.0186 16.208 10.1124 16.0436 10.265 15.9556L12.6068 14.5998C12.7535 14.5177 12.9531 14.5177 13.0998 14.5998L15.4415 15.9556C15.5941 16.0436 15.6881 16.208 15.6881 16.384V19.0897C15.6881 19.2657 15.5941 19.4301 15.4415 19.5181L13.0998 20.8739C13.0235 20.9091 12.9354 20.9267 12.8533 20.9267ZM13.5752 19.0662C12.5481 19.0662 12.3368 18.5967 12.3368 18.1976C12.3368 18.1623 12.3662 18.1271 12.4073 18.1271H12.7124C12.7476 18.1271 12.777 18.1506 12.777 18.1859C12.824 18.4969 12.9589 18.6495 13.5811 18.6495C14.074 18.6495 14.2854 18.538 14.2854 18.2739C14.2854 18.1213 14.2266 18.0098 13.4578 17.9335C12.8181 17.8689 12.419 17.7281 12.419 17.2175C12.419 16.742 12.8181 16.4603 13.4872 16.4603C14.2384 16.4603 14.6082 16.7186 14.6551 17.2819C14.6551 17.2996 14.6492 17.3172 14.6375 17.3348C14.6257 17.3465 14.6082 17.3583 14.5905 17.3583H14.2853C14.256 17.3583 14.2266 17.3348 14.2208 17.3055C14.1504 16.9827 13.9684 16.877 13.4872 16.877C12.9472 16.877 12.8826 17.0649 12.8826 17.2057C12.8826 17.3759 12.9589 17.4287 13.6867 17.5226C14.4086 17.6165 14.749 17.7515 14.749 18.2562C14.7431 18.7727 14.3206 19.0662 13.5752 19.0662Z" fill="#539E43"/>
<path d="M5.58735 10.3448C5.58735 10.2391 5.52864 10.1393 5.43475 10.0865L2.94627 8.65446C2.90513 8.63095 2.85821 8.61922 2.81129 8.61332H2.78778C2.74086 8.61332 2.69388 8.63095 2.6528 8.65446L0.164316 10.0865C0.0703711 10.1393 0.0117188 10.2391 0.0117188 10.3448L0.0176094 14.1948C0.0176094 14.2477 0.0469609 14.3005 0.0938828 14.324C0.140855 14.3533 0.199508 14.3533 0.240641 14.324L1.71964 13.4788C1.81354 13.426 1.87224 13.3262 1.87224 13.2206V11.4188C1.87224 11.3132 1.93089 11.2134 2.02484 11.1606L2.6528 10.7967C2.69977 10.7673 2.75259 10.7555 2.8054 10.7555C2.85821 10.7555 2.91102 10.7673 2.95216 10.7967L3.58012 11.1606C3.67406 11.2134 3.73271 11.3131 3.73271 11.4188V13.2206C3.73271 13.3262 3.79142 13.426 3.88531 13.4788L5.36432 14.324C5.41129 14.3533 5.46994 14.3533 5.51691 14.324C5.56389 14.3005 5.59324 14.2477 5.59324 14.1948L5.58735 10.3448ZM17.5485 5.04498C17.5016 5.02147 17.4429 5.02147 17.4018 5.04498C17.3548 5.07433 17.3255 5.12125 17.3255 5.17406V8.989C17.3255 9.0242 17.3079 9.05939 17.2727 9.0829C17.2375 9.10047 17.2022 9.10047 17.167 9.0829L16.5449 8.72489C16.4993 8.69892 16.4477 8.68527 16.3952 8.68527C16.3428 8.68527 16.2912 8.69892 16.2456 8.72489L13.7571 10.1628C13.6632 10.2156 13.6045 10.3154 13.6045 10.421V13.291C13.6045 13.3966 13.6632 13.4964 13.7571 13.5493L16.2456 14.9872C16.2912 15.0132 16.3428 15.0268 16.3952 15.0268C16.4477 15.0268 16.4993 15.0132 16.5449 14.9872L19.0334 13.5493C19.1273 13.4964 19.186 13.3967 19.186 13.291V6.13662C19.186 6.02511 19.1273 5.92537 19.0334 5.87251L17.5485 5.04498ZM17.3196 12.3461C17.3196 12.3755 17.3079 12.3989 17.2844 12.4106L16.4334 12.9036C16.4215 12.9094 16.4085 12.9124 16.3952 12.9124C16.382 12.9124 16.369 12.9094 16.3571 12.9036L15.5061 12.4106C15.4826 12.3989 15.4709 12.3696 15.4709 12.3461V11.3601C15.4709 11.3307 15.4826 11.3073 15.5061 11.2955L16.3571 10.8025C16.369 10.7967 16.382 10.7937 16.3952 10.7937C16.4085 10.7937 16.4215 10.7967 16.4334 10.8025L17.2844 11.2955C17.3079 11.3072 17.3196 11.3366 17.3196 11.3601V12.3461ZM25.8298 11.3366C25.9237 11.2838 25.9765 11.184 25.9765 11.0783V10.38C25.9765 10.2743 25.9178 10.1745 25.8298 10.1217L23.3589 8.6897C23.3133 8.66374 23.2617 8.65009 23.2093 8.65009C23.1568 8.65009 23.1052 8.66374 23.0596 8.6897L20.5711 10.1276C20.4772 10.1804 20.4185 10.2802 20.4185 10.3858V13.2558C20.4185 13.3614 20.4772 13.4612 20.5711 13.514L23.042 14.9226C23.1359 14.9754 23.2474 14.9754 23.3354 14.9226L24.832 14.0893C24.879 14.0658 24.9083 14.0129 24.9083 13.9601C24.9083 13.9073 24.879 13.8545 24.832 13.831L22.3318 12.3931C22.2849 12.3638 22.2555 12.3168 22.2555 12.264V11.366C22.2555 11.3132 22.2849 11.2604 22.3318 11.2369L23.1124 10.7908C23.1353 10.7764 23.1617 10.7688 23.1887 10.7688C23.2157 10.7688 23.2422 10.7764 23.265 10.7908L24.0456 11.2369C24.0925 11.2662 24.1219 11.3132 24.1219 11.366V12.0703C24.1219 12.1231 24.1512 12.1759 24.1982 12.1994C24.2451 12.2287 24.3038 12.2287 24.3508 12.1994L25.8298 11.3366Z" fill="#333333"/>
<path d="M23.1711 11.2017C23.1799 11.1959 23.1901 11.1929 23.2005 11.1929C23.2109 11.1929 23.2211 11.1959 23.2298 11.2017L23.7052 11.4775C23.7228 11.4892 23.7346 11.5068 23.7346 11.5303V12.082C23.7346 12.1055 23.7228 12.1231 23.7052 12.1348L23.2298 12.4107C23.2211 12.4164 23.2109 12.4194 23.2005 12.4194C23.1901 12.4194 23.1799 12.4164 23.1711 12.4107L22.6957 12.1348C22.6781 12.1231 22.6664 12.1055 22.6664 12.082V11.5303C22.6664 11.5068 22.6781 11.4892 22.6957 11.4775L23.1711 11.2017Z" fill="#539E43"/>
<path d="M9.74847 8.70148C9.70286 8.67552 9.65129 8.66187 9.59882 8.66187C9.54634 8.66187 9.49477 8.67552 9.44916 8.70148L6.9783 10.1276C6.88436 10.1804 6.83154 10.2802 6.83154 10.3858V13.2441C6.83154 13.3497 6.89025 13.4495 6.9783 13.5023L9.44916 14.9285C9.49477 14.9544 9.54634 14.9681 9.59882 14.9681C9.65129 14.9681 9.70286 14.9544 9.74847 14.9285L12.2194 13.5023C12.3133 13.4495 12.3661 13.3497 12.3661 13.2441V10.3858C12.3661 10.2802 12.3074 10.1804 12.2194 10.1276L9.74847 8.70148Z" fill="url(#paint0_linear_12027_104)"/>
<mask id="mask0_12027_104" style="mask-type:luminance" maskUnits="userSpaceOnUse" x="6" y="8" width="7" height="7">
<path d="M9.74847 8.70148C9.70286 8.67552 9.65129 8.66187 9.59882 8.66187C9.54634 8.66187 9.49477 8.67552 9.44916 8.70148L6.9783 10.1276C6.88436 10.1804 6.83154 10.2802 6.83154 10.3858V13.2441C6.83154 13.3497 6.89025 13.4495 6.9783 13.5023L9.44916 14.9285C9.49477 14.9544 9.54634 14.9681 9.59882 14.9681C9.65129 14.9681 9.70286 14.9544 9.74847 14.9285L12.2194 13.5023C12.3133 13.4495 12.3661 13.3497 12.3661 13.2441V10.3858C12.3661 10.2802 12.3074 10.1804 12.2194 10.1276L9.74847 8.70148Z" fill="white"/>
</mask>
<g mask="url(#mask0_12027_104)">
<path d="M12.2253 10.1276L9.74267 8.70147C9.71828 8.68915 9.69271 8.67932 9.66635 8.67212L6.8844 13.4378C6.90744 13.466 6.93528 13.4898 6.96661 13.5083L9.44921 14.9345C9.51964 14.9755 9.60181 14.9873 9.67808 14.9638L12.2899 10.1864C12.2722 10.1629 12.2487 10.1452 12.2253 10.1276Z" fill="url(#paint1_linear_12027_104)"/>
</g>
<mask id="mask1_12027_104" style="mask-type:luminance" maskUnits="userSpaceOnUse" x="6" y="8" width="7" height="7">
<path d="M9.74847 8.70148C9.70286 8.67552 9.65129 8.66187 9.59882 8.66187C9.54634 8.66187 9.49477 8.67552 9.44916 8.70148L6.9783 10.1276C6.88436 10.1804 6.83154 10.2802 6.83154 10.3858V13.2441C6.83154 13.3497 6.89025 13.4495 6.9783 13.5023L9.44916 14.9285C9.49477 14.9544 9.54634 14.9681 9.59882 14.9681C9.65129 14.9681 9.70286 14.9544 9.74847 14.9285L12.2194 13.5023C12.3133 13.4495 12.3661 13.3497 12.3661 13.2441V10.3858C12.3661 10.2802 12.3074 10.1804 12.2194 10.1276L9.74847 8.70148Z" fill="white"/>
</mask>
<g mask="url(#mask1_12027_104)">
<path fill-rule="evenodd" clip-rule="evenodd" d="M12.2311 13.5023C12.3016 13.4612 12.3544 13.3908 12.3779 13.3145L9.65454 8.66623C9.58411 8.6545 9.50779 8.66034 9.44329 8.70142L6.97827 10.1218L9.63692 14.9696C9.67559 14.9633 9.71314 14.9514 9.74844 14.9344L12.2311 13.5024L12.2311 13.5023Z" fill="url(#paint2_linear_12027_104)"/>
<path fill-rule="evenodd" clip-rule="evenodd" d="M12.2311 13.5023L9.75434 14.9285C9.71937 14.9463 9.68169 14.9582 9.64282 14.9637L9.68979 15.0517L12.4365 13.4612V13.426L12.3661 13.3086C12.3543 13.3908 12.3015 13.4612 12.2311 13.5023Z" fill="url(#paint3_linear_12027_104)"/>
<path fill-rule="evenodd" clip-rule="evenodd" d="M12.2311 13.5023L9.75434 14.9285C9.71937 14.9463 9.68169 14.9582 9.64282 14.9637L9.68979 15.0517L12.4365 13.4612V13.426L12.3661 13.3086C12.3543 13.3908 12.3015 13.4612 12.2311 13.5023Z" fill="url(#paint4_linear_12027_104)"/>
</g>
<defs>
<linearGradient id="paint0_linear_12027_104" x1="384.225" y1="118.939" x2="113.394" y2="544.494" gradientUnits="userSpaceOnUse">
<stop stop-color="#41873F"/>
<stop offset="0.3288" stop-color="#418B3D"/>
<stop offset="0.6352" stop-color="#419637"/>
<stop offset="0.9319" stop-color="#3FA92D"/>
<stop offset="1" stop-color="#3FAE2A"/>
</linearGradient>
<linearGradient id="paint1_linear_12027_104" x1="240.817" y1="356.437" x2="919.099" y2="-12.076" gradientUnits="userSpaceOnUse">
<stop offset="0.1376" stop-color="#41873F"/>
<stop offset="0.4032" stop-color="#54A044"/>
<stop offset="0.7136" stop-color="#66B848"/>
<stop offset="0.9081" stop-color="#6CC04A"/>
</linearGradient>
<linearGradient id="paint2_linear_12027_104" x1="-16.7207" y1="324.078" x2="555.034" y2="324.078" gradientUnits="userSpaceOnUse">
<stop offset="0.09192" stop-color="#6CC04A"/>
<stop offset="0.2864" stop-color="#66B848"/>
<stop offset="0.5968" stop-color="#54A044"/>
<stop offset="0.8624" stop-color="#41873F"/>
</linearGradient>
<linearGradient id="paint3_linear_12027_104" x1="-280.512" y1="100.944" x2="291.237" y2="100.944" gradientUnits="userSpaceOnUse">
<stop offset="0.09192" stop-color="#6CC04A"/>
<stop offset="0.2864" stop-color="#66B848"/>
<stop offset="0.5968" stop-color="#54A044"/>
<stop offset="0.8624" stop-color="#41873F"/>
</linearGradient>
<linearGradient id="paint4_linear_12027_104" x1="374.534" y1="-354.609" x2="229.687" y2="404.381" gradientUnits="userSpaceOnUse">
<stop stop-color="#41873F"/>
<stop offset="0.3288" stop-color="#418B3D"/>
<stop offset="0.6352" stop-color="#419637"/>
<stop offset="0.9319" stop-color="#3FA92D"/>
<stop offset="1" stop-color="#3FAE2A"/>
</linearGradient>
</defs>
</svg>
