<svg width="26" height="26" viewBox="0 0 26 26" fill="none" xmlns="http://www.w3.org/2000/svg">
<g clip-path="url(#clip0_12027_101)">
<path d="M11.4567 25.9833C9.02292 25.8079 6.61749 25.1953 5.14226 24.3752C4.30197 23.9081 3.66179 23.334 3.41057 22.8224L3.26111 22.5179V12.9692V3.42053L3.37938 3.18038C3.90791 2.10733 5.59469 1.13996 7.94935 0.559526C8.74865 0.362483 9.90254 0.16626 10.8439 0.0673109C11.8052 -0.0337548 14.353 -0.0183783 15.3119 0.0944245C17.8603 0.393833 20.0289 1.06413 21.3653 1.96555C21.8807 2.31317 22.4095 2.8694 22.5887 3.25227L22.7423 3.58053L22.7292 13.1004L22.716 22.6202L22.5927 22.8707C22.5249 23.0085 22.3201 23.2796 22.1375 23.473C21.0263 24.651 18.6427 25.5224 15.5162 25.8937C14.8789 25.9694 12.1105 26.0305 11.4567 25.9833ZM15.9417 17.8014C15.9323 17.777 15.5685 17.4529 15.1332 17.0811C14.6979 16.7093 14.3229 16.3877 14.3 16.3663C14.2771 16.345 14.3575 16.2694 14.4788 16.1983C14.6 16.1273 14.8322 15.9296 14.9948 15.759C15.4705 15.2603 15.6949 14.6443 15.6949 13.8373C15.6949 13.0429 15.4528 12.4019 14.9681 11.9126C14.4795 11.4195 13.9186 11.2076 13.1017 11.2076C11.8425 11.2076 10.8755 11.9423 10.5668 13.1335C10.4607 13.5432 10.4612 14.3711 10.5679 14.7344C10.8463 15.682 11.6044 16.3703 12.5479 16.5319C12.8672 16.5866 12.9104 16.6102 13.1281 16.8482C13.2575 16.9896 13.5229 17.2719 13.718 17.4755L14.0727 17.8457H15.0157C15.5344 17.8457 15.951 17.8258 15.9417 17.8014ZM12.7078 15.1611C12.4808 15.0427 12.395 14.9509 12.2655 14.6877C12.1655 14.4844 12.1484 14.3688 12.1473 13.8884C12.1462 13.4002 12.1617 13.2947 12.2661 13.0827C12.4369 12.7359 12.6723 12.5717 13.0364 12.5453C13.5432 12.5086 13.8358 12.7573 13.9891 13.3551C14.1771 14.088 13.9704 14.8672 13.5194 15.1258C13.2827 15.2615 12.9298 15.2768 12.7078 15.1611ZM8.52808 16.5215C9.51674 16.334 10.078 15.759 10.078 14.9337C10.078 14.2015 9.71564 13.7748 8.71422 13.3277C8.14097 13.0718 7.93332 12.9112 7.93332 12.7235C7.93332 12.568 8.13037 12.3975 8.35977 12.3547C8.58375 12.3128 9.1778 12.416 9.5286 12.5577L9.82266 12.6765V12.0256V11.3747L9.50351 11.3039C9.30627 11.2602 8.8918 11.2339 8.41842 11.2352C7.74789 11.2352 7.61659 11.2516 7.36426 11.3518C6.62717 11.6444 6.27741 12.1429 6.283 12.8927C6.28824 13.5946 6.65854 14.0324 7.58012 14.4263C8.12389 14.6587 8.34184 14.8357 8.34184 15.0448C8.34184 15.4892 7.60135 15.5439 6.81736 15.1574C6.60266 15.0516 6.40975 14.9564 6.38869 14.9458C6.36763 14.9353 6.3504 15.2393 6.3504 15.6215C6.3504 16.3132 6.35114 16.3166 6.47638 16.3643C6.94801 16.5436 7.99042 16.6235 8.52808 16.5215ZM19.8309 15.8798V15.2926H18.9373H18.0437V13.2756V11.2586H17.2523H16.4608V13.8628V16.467H18.1459H19.8309V15.8798ZM14.3162 5.58936C15.889 5.48027 17.0679 5.27432 18.1054 4.92744C19.1389 4.58186 19.7495 4.16371 19.8861 3.7079C19.9387 3.53225 19.9349 3.46562 19.8614 3.27304C19.5317 2.40965 17.6897 1.7463 14.875 1.47735C13.671 1.36228 11.4813 1.39959 10.3333 1.55466C8.58168 1.79133 7.16011 2.23094 6.52802 2.73144C5.24937 3.74396 6.60155 4.85759 9.74608 5.38175C11.1095 5.60903 12.876 5.68928 14.3162 5.58936Z" fill="#00BCF2"/>
</g>
<defs>
<clipPath id="clip0_12027_101">
<rect width="26" height="26" fill="white"/>
</clipPath>
</defs>
</svg>
